<?xml version="1.0" encoding="UTF-8" standalone="no"?>
<!-- Created with Inkscape (http://www.inkscape.org/) -->

<svg
   xmlns:dc="http://purl.org/dc/elements/1.1/"
   xmlns:cc="http://creativecommons.org/ns#"
   xmlns:rdf="http://www.w3.org/1999/02/22-rdf-syntax-ns#"
   xmlns:svg="http://www.w3.org/2000/svg"
   xmlns="http://www.w3.org/2000/svg"
   xmlns:sodipodi="http://sodipodi.sourceforge.net/DTD/sodipodi-0.dtd"
   xmlns:inkscape="http://www.inkscape.org/namespaces/inkscape"
   version="1.1"
   width="1500"
   height="235"
   id="svg3041"
   inkscape:version="0.91 r13725"
   sodipodi:docname="logo.svg">
  <sodipodi:namedview
     pagecolor="#ffffff"
     bordercolor="#666666"
     borderopacity="1"
     objecttolerance="10"
     gridtolerance="10"
     guidetolerance="10"
     inkscape:pageopacity="0"
     inkscape:pageshadow="2"
     inkscape:window-width="1920"
     inkscape:window-height="1023"
     id="namedview16"
     showgrid="false"
     inkscape:zoom="0.62413959"
     inkscape:cx="918.04077"
     inkscape:cy="-18.446555"
     inkscape:window-x="1080"
     inkscape:window-y="308"
     inkscape:window-maximized="1"
     inkscape:current-layer="svg3041" />
  <defs
     id="defs3043" />
  <metadata
     id="metadata3046">
    <rdf:RDF>
      <cc:Work
         rdf:about="">
        <dc:format>image/svg+xml</dc:format>
        <dc:type
           rdf:resource="http://purl.org/dc/dcmitype/StillImage" />
        <dc:title />
      </cc:Work>
    </rdf:RDF>
  </metadata>
  <path
     d="m 31.9375,53.96875 c -18.149554,0 -32.75,11.25795 -32.75,25.21875 l 0,75.59375 c 0,9.4104 6.6450476,17.57761 16.53125,21.90625 l 27.25,-27.25 0,-3.78125 0,-57.65625 78.375,0 0,57.65625 -57,0 -34.28125,34.28125 c 0.622153,0.0268 1.243823,0.0312 1.875,0.0312 l 99.59375,0 c 18.14955,0 32.75,-11.2267 32.75,-25.1875 l 0,-67.9375 -19.34375,-30.6562 c -4.08798,-1.404459 -8.62462,-2.21875 -13.40625,-2.21875 l -99.59375,0 z"
     id="rect3776"
     style="color:#000000;fill:#ffffff;fill-opacity:1;fill-rule:nonzero;stroke:none;stroke-width:9;marker:none;visibility:visible;display:inline;overflow:visible;enable-background:accumulate" />
  <path
     d="m 1195.4529,53.97806 c -1.6735,0 -3.3096,0.09124 -4.9142,0.275625 l -27.8467,42.052498 0,58.471877 c 0,13.9608 14.6113,25.2 32.7609,25.2 l 90.7068,0 c 18.1496,0 32.7609,-11.2392 32.7609,-25.2 l 0,-25.86938 -43.6949,0 0,16.73438 -68.3474,0 0,-57.645001 68.3474,0 0,14.371891 43.6949,0 0,-23.191891 c 0,-13.9608 -14.6113,-25.199999 -32.7609,-25.199999 l -90.7068,0 z"
     id="rect3776-0"
     style="color:#000000;fill:#ffffff;fill-opacity:1;fill-rule:nonzero;stroke:none;stroke-width:9;marker:none;visibility:visible;display:inline;overflow:visible;enable-background:accumulate" />
  <path
     d="m 159.2657,53.97806 79.60905,126 15.68429,0 15.72525,0 79.60905,-126 -48.48617,0 -46.84813,74.93062 -46.80717,-74.93062 -48.48617,0 z"
     id="path3863"
     style="fill:#ffffff;fill-opacity:1;stroke:none" />
  <path
     d="m 367.09283,53.97806 -20.51653,32.484373 0,93.515627 133.00936,0 0,-34.335 -29.48483,0 -60.48486,0 0,-14.37187 60.48486,0 0,-28.90124 -60.48486,0 0,-14.371891 89.96969,0 0,-34.019999 -112.49283,0 z"
     id="rect3885"
     style="color:#000000;fill:#ffffff;fill-opacity:1;fill-rule:nonzero;stroke:none;stroke-width:9;marker:none;visibility:visible;display:inline;overflow:visible;enable-background:accumulate" />
  <path
     d="m 496.41659,53.97806 0,22.68 0,32.48439 0,70.83561 43.53108,0 0,-34.335 0,-13.82061 0,-43.824391 18.42803,0 47.66714,0 0,18.585001 -47.66714,0 0,25.23939 52.78604,48.15561 58.56016,0 -52.78605,-48.15561 4.91414,0 c 14.51965,0 26.20874,-10.11529 26.20874,-22.68 l 0,-32.48439 c 0,-12.564721 -11.68909,-22.68 -26.20874,-22.68 l -81.90232,0 -17.32234,0 -26.20874,0 z"
     id="rect3950"
     style="color:#000000;fill:#ffffff;fill-opacity:1;fill-rule:nonzero;stroke:none;stroke-width:9;marker:none;visibility:visible;display:inline;overflow:visible;enable-background:accumulate" />
  <path
     d="m 843.80148,179.97806 83.34055,-126 16.41946,0 16.46232,0 83.34059,126 -50.75887,0 -49.04404,-74.93062 -49.00116,74.93062 -50.75885,0 z"
     id="path3863-2"
     style="fill:#ffffff;fill-opacity:1;stroke:none" />
  <path
     d="m 655.18424,53.97806 55.24311,126 27.47823,0 28.78866,-62.09438 27.39633,62.09438 30.0172,0 55.28406,-126 -42.95776,0 -26.20874,62.96062 -27.80584,-62.96062 -15.72525,0 -12.89961,0 -27.80584,62.96062 -26.45445,-62.96062 -44.3501,0 z"
     id="path3982"
     style="fill:#ffffff;fill-opacity:1;stroke:none" />
  <path
     d="m 1009.1251,53.97806 0,34.019999 54.0555,0 0,91.980001 43.0807,0 0,-91.980001 42.7939,0 22.5641,-34.019999 -162.4942,0 z"
     id="rect4003"
     style="color:#000000;fill:#ffffff;fill-opacity:1;fill-rule:nonzero;stroke:none;stroke-width:9;marker:none;visibility:visible;display:inline;overflow:visible;enable-background:accumulate" />
  <path
     d="m 1335.5878,53.97806 0,126 44.2273,0 0,-48.39187 74.6539,0 0,48.39187 43.531,0 0,-126 -43.531,0 0,44.296873 -74.6539,0 0,-44.296873 -44.2273,0 z"
     id="rect4024"
     style="color:#000000;fill:#ffffff;fill-opacity:1;fill-rule:nonzero;stroke:none;stroke-width:9;marker:none;visibility:visible;display:inline;overflow:visible;enable-background:accumulate" />
  <path
     d="m 219.58311,53.97806 34.9958,-51.615742 34.99702,51.615742 -34.99702,0 z"
     id="path4072"
     style="fill:#fa9c1e;fill-opacity:1;stroke:none" />
  <path
     d="m 908.58652,179.97806 34.9958,51.61575 34.99703,-51.61575 -34.99703,0 z"
     id="path4072-1"
     style="fill:#fa9c1e;fill-opacity:1;stroke:none" />
</svg>
